<?xml version="1.0" standalone="no"?>
<!DOCTYPE svg PUBLIC "-//W3C//DTD SVG 20010904//EN"
 "http://www.w3.org/TR/2001/REC-SVG-20010904/DTD/svg10.dtd">
<svg version="1.0" xmlns="http://www.w3.org/2000/svg"
 width="725.000000pt" height="217.000000pt" viewBox="0 0 725.000000 217.000000"
 preserveAspectRatio="xMidYMid meet">

<g transform="translate(0.000000,217.000000) scale(0.100000,-0.100000)"
fill="#000000" stroke="none">
<path d="M1315 2025 c-11 -2 -67 -9 -125 -15 -206 -22 -355 -62 -524 -140
-154 -71 -325 -208 -391 -313 -10 -18 -22 -34 -26 -37 -14 -10 -76 -157 -90
-210 -18 -73 -18 -299 0 -365 15 -56 90 -205 103 -205 4 0 8 -5 8 -10 0 -24
175 -184 258 -235 1 -1 -2 -14 -8 -29 -11 -31 3 -62 33 -70 14 -3 17 -10 12
-26 -4 -13 -1 -33 6 -47 15 -27 122 -107 173 -128 39 -17 41 -16 139 78 51 49
62 51 142 26 64 -21 257 -39 405 -39 152 1 276 14 415 44 39 9 75 16 80 16 6
0 41 -29 78 -65 49 -47 76 -65 95 -65 31 0 160 83 191 122 23 29 27 53 10 64
-6 3 2 14 20 25 32 19 39 45 21 78 -8 16 1 27 53 67 34 27 68 53 75 59 7 5 41
44 76 85 115 137 166 271 166 434 0 56 -19 179 -36 235 -12 40 -64 142 -97
190 -29 44 -138 158 -183 192 -30 23 -145 99 -149 99 -2 0 -37 16 -77 34 -107
51 -212 86 -329 110 -130 27 -459 53 -524 41z m390 -166 c288 -44 579 -170
734 -319 61 -59 47 -68 -76 -46 -225 38 -412 45 -664 25 -166 -13 -204 -22
-240 -61 l-28 -31 -25 30 c-32 38 -76 50 -239 63 -245 19 -436 12 -661 -27
-96 -16 -99 -16 -113 3 -13 17 -10 22 29 57 199 175 520 295 863 321 79 6 343
-4 420 -15z m-529 -380 c196 -19 224 -35 224 -129 0 -30 -8 -78 -19 -105 -32
-86 -54 -140 -61 -150 -5 -5 -33 -72 -64 -148 -31 -76 -61 -146 -66 -155 -5
-9 -33 -69 -63 -132 -67 -140 -113 -203 -251 -339 l-105 -105 -69 47 c-38 26
-77 56 -87 67 -17 19 -17 21 9 55 35 45 57 56 96 49 24 -5 30 -11 28 -28 -2
-15 -9 -20 -26 -19 -17 2 -22 -2 -22 -22 0 -29 8 -32 27 -8 10 13 16 15 19 6
9 -22 21 -14 17 10 -3 16 7 35 37 67 64 69 64 70 48 70 -9 0 -28 -12 -43 -28
-23 -23 -36 -27 -84 -28 -31 0 -76 -6 -100 -13 -24 -6 -51 -9 -59 -6 -27 10 7
30 83 49 39 10 95 29 126 42 34 14 76 24 105 24 58 0 66 9 102 120 21 64 25
104 32 280 5 137 13 221 23 253 8 26 14 47 12 47 -2 0 -25 -9 -51 -20 -136
-59 -367 -123 -496 -140 -90 -11 -267 -14 -292 -4 -32 12 -13 140 35 241 12
27 40 72 61 101 l40 54 23 -22 c28 -27 51 -25 330 19 75 13 357 12 481 0z
m999 0 c39 -6 95 -15 125 -20 120 -20 171 -22 195 -9 22 12 26 11 44 -11 11
-13 26 -35 32 -49 7 -14 18 -32 25 -40 22 -29 53 -129 60 -193 l7 -65 -72 -7
c-77 -8 -197 -1 -301 17 -116 20 -405 112 -456 145 l-21 13 20 -57 c16 -47 21
-96 27 -263 6 -178 10 -214 30 -270 41 -117 44 -120 102 -120 31 0 72 -9 107
-24 31 -13 88 -32 126 -42 76 -19 110 -39 83 -49 -8 -3 -35 0 -59 6 -24 7 -70
13 -101 13 -47 1 -61 5 -85 29 -16 15 -37 27 -47 27 -14 0 -5 -14 33 -51 39
-39 51 -57 51 -81 0 -27 2 -29 16 -17 14 11 18 10 30 -6 8 -10 14 -14 14 -8 0
6 3 19 6 27 5 12 1 16 -16 14 -12 -2 -27 5 -33 14 -14 21 -11 24 35 32 35 6
41 4 78 -34 22 -22 40 -45 40 -50 0 -13 -22 -32 -100 -85 l-72 -50 -132 135
c-117 120 -185 210 -215 285 -2 6 -21 47 -43 93 -21 46 -61 138 -89 205 -28
67 -64 150 -80 185 -39 85 -79 206 -79 240 0 28 22 68 50 89 44 34 504 56 665
32z m-724 -251 c6 -24 20 -63 31 -88 11 -25 33 -72 48 -105 15 -33 31 -71 35
-85 8 -25 28 -70 92 -210 19 -41 39 -86 45 -100 20 -52 101 -182 144 -229 l45
-50 -40 -11 c-100 -27 -254 -43 -421 -43 -162 0 -236 6 -397 34 l-63 11 54 62
c43 50 126 175 126 191 0 5 77 175 89 196 5 9 30 67 56 130 25 62 57 136 70
164 12 28 30 73 39 100 25 74 25 75 30 75 3 0 10 -19 17 -42z m-481 -263 c-7
-197 -9 -215 -37 -295 l-30 -85 -35 3 c-21 2 -77 -11 -140 -32 -58 -20 -118
-36 -132 -36 -83 0 -296 207 -358 348 -21 46 -48 136 -48 159 0 8 34 11 117
11 65 0 145 3 178 7 89 10 329 70 415 104 41 16 75 28 76 27 1 0 -2 -95 -6
-211z m1003 180 c34 -14 96 -34 137 -45 187 -48 234 -54 389 -55 l153 0 -5
-51 c-8 -77 -57 -183 -122 -264 -72 -89 -225 -210 -267 -210 -13 0 -55 12 -93
26 -104 39 -135 46 -168 41 -26 -3 -31 0 -49 42 -35 83 -46 161 -50 354 -2
103 0 187 5 187 4 0 35 -11 70 -25z"/>
<path d="M3117 1765 l-37 -26 0 -339 0 -340 60 0 60 0 0 365 0 365 -23 0 c-12
0 -39 -11 -60 -25z"/>
<path d="M3320 1720 l0 -71 68 3 67 3 3 68 3 67 -71 0 -70 0 0 -70z"/>
<path d="M4230 1596 c-148 -49 -190 -137 -190 -402 l0 -134 69 0 69 0 4 163
c3 180 12 211 63 236 17 9 49 15 72 16 l43 0 0 68 0 67 -47 -1 c-27 -1 -64 -6
-83 -13z"/>
<path d="M4538 1591 c-127 -50 -185 -193 -146 -362 10 -42 23 -63 63 -104 60
-60 102 -75 206 -75 90 0 142 23 199 87 22 25 40 50 40 54 0 5 -32 9 -70 9
-57 0 -75 -4 -92 -20 -17 -15 -36 -20 -81 -20 -32 0 -67 4 -77 10 -24 13 -55
58 -64 93 l-6 27 201 0 202 0 -6 73 c-9 105 -35 157 -102 203 -68 46 -184 57
-267 25z m173 -107 c34 -17 45 -32 54 -71 l7 -33 -126 0 c-73 0 -126 4 -126
10 0 15 24 64 38 79 20 20 84 41 107 34 11 -3 32 -11 46 -19z"/>
<path d="M3338 1593 c-17 -4 -18 -26 -18 -269 l0 -264 70 0 70 0 -2 268 -3
267 -50 2 c-27 0 -58 -1 -67 -4z"/>
<path d="M3535 1548 c20 -64 50 -153 85 -248 17 -47 43 -122 58 -168 l27 -83
70 3 69 3 19 50 c10 28 31 88 47 135 38 111 74 212 100 280 11 30 20 58 20 62
0 5 -29 8 -63 8 -49 0 -67 -4 -79 -17 -8 -10 -32 -79 -52 -153 -21 -74 -44
-150 -51 -169 l-12 -34 -16 44 c-8 24 -20 64 -27 89 -7 25 -18 63 -25 85 -8
22 -20 66 -27 98 l-13 57 -71 0 -72 0 13 -42z"/>
<path d="M6404 981 c-23 -10 -44 -23 -48 -29 -5 -8 -15 -131 -16 -193 0 -12
-10 -8 -37 17 -42 38 -83 49 -155 41 -67 -8 -126 -57 -162 -133 -23 -49 -27
-69 -27 -155 0 -81 4 -105 22 -141 49 -98 110 -130 244 -131 103 0 154 20 204
80 47 57 51 88 51 387 0 311 5 294 -76 257z m-111 -301 c47 -38 69 -142 46
-221 -18 -60 -61 -94 -117 -94 -88 0 -122 49 -122 174 0 75 8 100 43 139 28
30 112 31 150 2z"/>
<path d="M6722 815 c-71 -17 -127 -68 -166 -150 -14 -30 -19 -63 -19 -130 0
-80 3 -96 27 -140 62 -111 111 -139 246 -139 88 0 99 3 142 30 61 38 94 83
118 162 25 81 25 104 -1 188 -17 57 -30 78 -72 119 -44 43 -61 52 -113 63 -72
14 -93 14 -162 -3z m167 -131 c40 -33 55 -90 48 -178 -5 -60 -10 -73 -37 -101
-63 -65 -166 -49 -209 32 -13 26 -15 162 -1 197 10 27 39 60 61 69 8 3 35 6
61 6 36 1 53 -5 77 -25z"/>
<path d="M3194 812 c-47 -16 -95 -59 -119 -106 -24 -48 -25 -57 -25 -248 l0
-198 59 0 60 0 3 191 3 191 33 29 c41 37 89 39 129 5 l28 -24 3 -196 3 -196
65 0 64 0 0 180 c0 193 5 217 50 243 43 26 83 21 119 -12 l31 -29 0 -191 0
-191 65 0 65 0 0 171 c0 234 -22 307 -107 360 -32 20 -51 24 -119 24 -78 0
-84 -2 -123 -33 l-41 -33 -41 32 c-36 28 -49 32 -112 35 -40 2 -81 0 -93 -4z"/>
<path d="M4080 812 c-143 -40 -221 -201 -178 -370 17 -70 46 -109 113 -150 58
-36 63 -37 150 -37 93 1 139 15 191 62 23 21 54 64 54 75 0 15 -142 9 -160 -7
-26 -23 -100 -30 -142 -12 -41 17 -65 48 -74 95 l-6 32 201 0 201 0 0 38 c0
58 -24 137 -55 182 -43 62 -102 91 -194 95 -42 2 -87 1 -101 -3z m169 -136
c16 -16 31 -41 33 -57 l5 -29 -129 0 c-70 0 -128 2 -128 5 0 25 46 96 68 104
48 18 119 7 151 -23z"/>
<path d="M4700 810 c-52 -11 -94 -36 -133 -79 -50 -55 -67 -140 -67 -325 l0
-146 69 0 69 0 4 173 c2 146 6 177 21 200 22 33 57 48 115 49 l42 1 0 69 0 68
-42 -1 c-24 -1 -59 -5 -78 -9z"/>
<path d="M5030 814 c-41 -8 -103 -56 -137 -107 -36 -54 -49 -124 -40 -222 9
-94 39 -150 104 -193 52 -34 57 -36 146 -36 75 0 100 4 134 22 68 35 103 80
127 160 7 21 6 22 -68 22 -66 0 -76 -2 -76 -17 -1 -29 -42 -70 -77 -76 -42 -8
-90 7 -113 35 -46 55 -47 202 -3 263 23 31 75 49 118 41 34 -7 75 -46 75 -72
0 -11 18 -14 75 -14 41 0 75 4 75 10 0 5 -9 34 -21 64 -17 46 -28 60 -71 86
-45 28 -61 32 -137 35 -47 2 -97 1 -111 -1z"/>
<path d="M5569 811 c-63 -20 -106 -71 -124 -143 l-7 -28 65 0 c62 0 66 1 78
29 36 81 210 53 184 -29 -8 -27 -40 -39 -134 -50 -89 -12 -153 -40 -183 -83
-31 -44 -31 -141 1 -185 38 -54 73 -66 187 -66 90 1 106 4 159 30 47 23 63 38
81 74 21 41 23 59 24 192 0 181 -7 201 -79 242 -38 21 -205 33 -252 17z m201
-316 c0 -82 -57 -145 -131 -145 -47 0 -68 17 -75 62 -5 30 -2 41 19 62 15 15
38 26 54 27 15 0 44 7 63 14 59 23 70 20 70 -20z"/>
</g>
</svg>
