<?xml version="1.0" standalone="no"?>
<!DOCTYPE svg PUBLIC "-//W3C//DTD SVG 20010904//EN"
 "http://www.w3.org/TR/2001/REC-SVG-20010904/DTD/svg10.dtd">
<svg version="1.0" xmlns="http://www.w3.org/2000/svg"
 width="1604.000000pt" height="1200.000000pt" viewBox="0 0 1604.000000 1200.000000"
 preserveAspectRatio="xMidYMid meet">

<g transform="translate(0.000000,1200.000000) scale(0.100000,-0.100000)"
fill="#000000" stroke="none">
<path d="M2751 10151 c-8 -5 -42 -13 -75 -16 -34 -4 -67 -12 -75 -19 -11 -8
-15 -8 -18 2 -3 6 -19 11 -36 11 -21 -1 -25 -3 -12 -6 14 -4 9 -9 -24 -20 -33
-11 -46 -12 -51 -3 -5 8 -22 9 -56 4 -43 -7 -46 -9 -24 -16 20 -6 19 -7 -10
-4 -50 6 -90 -4 -90 -21 0 -10 -5 -11 -17 -5 -21 12 -113 -13 -129 -34 -7 -9
-14 -11 -15 -5 -3 7 -19 6 -47 -2 -23 -7 -39 -16 -35 -21 4 -4 1 -11 -7 -17
-13 -8 -13 -10 0 -18 26 -17 5 -20 -35 -6 -36 13 -37 14 -12 15 15 0 27 5 27
11 0 6 -7 8 -16 5 -9 -3 -27 -9 -40 -12 -21 -5 -23 -9 -12 -21 11 -14 8 -15
-19 -9 -18 4 -40 3 -50 -3 -10 -6 -12 -11 -5 -11 8 0 12 -16 12 -45 l0 -45
-37 0 c-21 0 -45 5 -53 10 -10 6 -11 10 -2 10 6 0 12 11 12 24 0 23 0 23 -34
7 -21 -10 -29 -19 -22 -24 7 -5 3 -7 -9 -6 -11 1 -29 0 -40 0 -19 -2 -18 -3 3
-11 18 -8 22 -17 22 -51 l0 -41 -76 5 c-69 5 -77 3 -81 -14 -3 -10 -9 -19 -14
-19 -16 0 -10 32 9 47 15 12 14 13 -8 2 -14 -7 -29 -18 -33 -25 -4 -8 -16 -14
-25 -14 -20 0 -134 -69 -114 -70 6 0 12 -7 12 -15 0 -18 -17 -20 -23 -2 -3 9
-9 9 -28 -1 -38 -20 -75 -52 -62 -52 6 0 19 7 27 16 9 8 16 11 16 5 0 -6 4
-11 10 -11 5 0 7 7 4 15 -4 9 0 15 10 15 22 0 20 -17 -4 -32 -14 -9 -20 -24
-20 -50 l0 -38 -43 0 c-43 0 -43 1 -39 30 2 17 0 30 -4 30 -15 -1 -70 -50 -56
-50 7 0 20 7 29 15 8 9 18 13 22 10 10 -11 -33 -36 -53 -31 -18 5 -126 -66
-126 -83 0 -4 -16 -16 -35 -27 -23 -12 -31 -22 -25 -28 13 -13 13 -59 0 -51
-6 4 -9 14 -8 22 2 9 -3 18 -11 21 -8 3 -11 0 -7 -7 4 -6 2 -11 -3 -11 -6 0
-11 -7 -11 -16 0 -11 -6 -15 -19 -11 -14 3 -18 1 -14 -9 4 -10 0 -12 -12 -8
-13 5 -16 3 -13 -7 3 -8 14 -14 25 -14 12 0 25 -3 29 -7 4 -5 -6 -8 -22 -8
-17 0 -35 5 -42 12 -9 9 -12 -638 -12 -2912 l0 -2925 225 3 c180 3 225 1 225
-10 0 -7 14 7 30 32 16 25 30 50 30 57 0 6 6 13 13 16 9 3 9 8 1 16 -13 14
-30 -2 -36 -34 -3 -20 -38 -35 -38 -16 0 6 7 8 15 5 10 -4 13 -2 10 8 -6 16
26 58 44 58 6 0 11 -6 11 -12 1 -22 24 26 25 52 1 14 -3 31 -8 38 -7 9 -6 11
5 7 11 -5 14 1 10 25 -2 17 -10 30 -18 30 -8 0 -14 7 -14 15 0 20 39 20 46 0
4 -8 12 -15 19 -15 16 0 46 76 38 98 -5 13 -3 14 6 6 10 -9 9 -22 -5 -63 -10
-28 -25 -52 -33 -53 -15 -3 -44 -85 -31 -90 4 -2 -10 -34 -32 -73 -22 -38 -48
-83 -58 -100 -77 -135 -303 -531 -327 -575 -17 -30 -62 -110 -101 -177 -38
-67 -67 -125 -64 -128 8 -8 4182 -6 4182 3 0 4 -20 41 -44 82 -107 185 -272
469 -360 620 l-97 165 26 9 c14 6 25 16 25 23 0 10 42 13 208 11 l207 -3 -202
-2 c-124 -2 -203 -7 -203 -13 0 -6 78 -10 205 -10 l205 0 0 2929 0 2929 -21
-5 c-11 -3 -18 -11 -15 -18 3 -8 -6 -12 -24 -11 -25 1 -28 5 -27 34 1 34 11
42 21 17 3 -8 13 -15 23 -15 15 1 15 4 -6 20 -13 11 -31 20 -40 20 -12 0 -13
2 -3 9 10 6 5 14 -21 30 -35 21 -65 30 -37 10 11 -8 12 -12 3 -16 -18 -7 -16
-23 2 -23 8 0 15 5 15 11 0 5 5 7 11 3 8 -5 6 -10 -5 -16 -28 -16 -44 -3 -42
34 2 30 -4 37 -58 74 -34 23 -64 40 -68 37 -16 -9 -7 -21 20 -27 15 -3 38 -14
51 -24 l23 -19 -63 1 c-53 1 -64 4 -67 19 -4 18 -2 18 22 2 13 -9 35 -15 48
-13 22 4 22 5 3 12 -57 22 -66 30 -61 52 7 28 -10 35 -58 24 -41 -9 -50 6 -10
16 l27 7 -24 18 c-13 9 -35 19 -49 22 -14 2 -34 8 -44 12 -15 6 -17 5 -11 -5
5 -9 4 -11 -3 -6 -9 5 -9 13 -2 27 11 20 1 26 -16 10 -12 -12 -66 -2 -58 11 3
5 17 7 31 3 16 -4 22 -2 18 5 -3 5 -16 10 -28 10 -18 0 -19 2 -7 10 12 8 11
10 -6 10 -11 0 -25 5 -30 10 -6 6 -19 7 -30 3 -17 -6 -17 -8 6 -13 15 -4 1 -7
-38 -8 -40 0 -60 3 -56 9 3 6 17 8 29 5 30 -8 41 9 17 26 -10 7 -24 22 -30 33
-8 16 -12 17 -15 5 -17 -53 -20 -56 -26 -26 -4 19 -17 35 -41 47 -19 11 -28
19 -20 19 8 -1 26 -7 40 -15 43 -25 47 -16 5 10 -22 13 -46 25 -52 25 -20 0
-15 -27 7 -43 19 -13 16 -14 -40 -16 l-60 -1 0 40 c0 22 -4 40 -10 40 -5 0
-10 5 -10 11 0 7 7 8 18 4 22 -10 62 -18 42 -9 -8 4 -40 18 -70 31 -30 13 -63
28 -73 34 -24 13 -34 4 -17 -16 8 -9 22 -14 32 -12 10 3 16 1 12 -4 -3 -5 -18
-9 -33 -9 -15 0 -32 -5 -39 -12 -9 -9 -12 -9 -12 0 0 7 4 12 9 12 5 0 8 12 7
27 -3 28 -44 61 -76 62 -9 0 -5 -5 9 -13 l24 -13 -26 -7 c-14 -3 -31 -4 -39
-2 -7 2 -25 7 -40 10 -35 8 -36 24 -2 32 18 5 22 9 13 14 -7 5 -19 6 -28 2 -9
-3 -12 -1 -8 3 4 5 -25 19 -65 30 -40 12 -97 29 -125 38 -29 9 -53 12 -53 7 0
-4 18 -11 40 -15 41 -7 55 -30 23 -38 -40 -10 -143 7 -143 24 0 12 5 11 70 -6
102 -27 93 -13 -20 32 l-75 30 -217 -2 c-179 -2 -215 0 -211 11 8 21 70 22
153 3 32 -7 53 -7 70 1 l25 10 -27 -5 c-15 -3 -29 -1 -33 4 -3 5 9 12 27 14
18 2 -11 2 -64 -1 -66 -3 -98 -1 -98 6 0 6 6 13 13 16 6 3 0 3 -14 0 -15 -3
-30 -1 -33 5 -12 20 -35 12 -29 -9 3 -11 0 -20 -6 -20 -6 0 -11 9 -11 20 0 19
-7 20 -117 20 -65 0 -124 -4 -132 -9z m-28 -28 c-7 -2 -21 -2 -30 0 -10 3 -4
5 12 5 17 0 24 -2 18 -5z m-50 -20 c-7 -2 -21 -2 -30 0 -10 3 -4 5 12 5 17 0
24 -2 18 -5z m87 -3 c0 -5 -12 -10 -27 -9 l-28 1 25 8 c14 4 26 8 28 9 1 1 2
-3 2 -9z m-135 -9 c37 -8 35 -8 -22 -8 -35 1 -63 5 -63 9 0 10 33 9 85 -1z
m-355 -51 c8 -5 11 -12 7 -16 -3 -4 -14 -1 -22 6 -12 10 -21 10 -40 2 -14 -7
-25 -16 -25 -22 0 -5 -9 -10 -20 -10 -14 0 -18 5 -13 16 11 29 81 44 113 24z
m1414 -31 c-8 -14 -24 -10 -24 6 0 9 6 12 15 9 8 -4 12 -10 9 -15z m-1439 1
l20 -9 -20 0 c-11 0 -27 4 -35 9 -13 9 -13 10 0 9 8 0 24 -4 35 -9z m-142 -7
c-7 -2 -19 -2 -25 0 -7 3 -2 5 12 5 14 0 19 -2 13 -5z m1630 0 c-7 -2 -19 -2
-25 0 -7 3 -2 5 12 5 14 0 19 -2 13 -5z m-1740 -70 c-7 -2 -19 -2 -25 0 -7 3
-2 5 12 5 14 0 19 -2 13 -5z m-46 -9 c-3 -3 -12 -4 -19 -1 -8 3 -5 6 6 6 11 1
17 -2 13 -5z m-162 -44 c-3 -5 -12 -10 -18 -10 -7 0 -6 4 3 10 19 12 23 12 15
0z m2290 -20 l-20 -9 20 -1 c12 -1 15 -4 7 -7 -7 -3 -20 -2 -30 2 -14 5 -14 7
-2 15 8 6 22 9 30 9 10 0 8 -3 -5 -9z m-2308 -16 c-3 -3 -12 -4 -19 -1 -8 3
-5 6 6 6 11 1 17 -2 13 -5z m2260 0 c-3 -3 -12 -4 -19 -1 -8 3 -5 6 6 6 11 1
17 -2 13 -5z m-2553 -128 c-3 -8 -13 -16 -22 -19 -9 -3 -26 -8 -37 -12 -11 -4
-2 4 20 19 47 30 46 30 39 12z m56 -6 c0 -11 -8 -15 -55 -25 l-30 -6 30 21
c33 22 55 26 55 10z m-135 -99 c-3 -6 -11 -11 -16 -11 -5 0 -4 6 3 14 14 16
24 13 13 -3z m3085 -2 c0 -11 -3 -11 -24 -3 -23 9 -20 23 4 17 11 -3 20 -9 20
-14z m200 -79 c0 -5 -2 -10 -4 -10 -3 0 -8 5 -11 10 -3 6 -1 10 4 10 6 0 11
-4 11 -10z m-3523 -50 c0 -17 -4 -26 -8 -19 -4 7 -14 9 -25 4 -18 -7 -18 -8 1
-15 15 -6 11 -8 -17 -7 -28 2 -34 5 -26 15 6 6 16 12 23 12 6 0 20 9 30 20 10
11 19 20 20 20 1 0 2 -14 2 -30z m1843 -80 l0 -40 63 -1 c34 -1 78 -1 97 -1
29 1 31 0 15 -7 -17 -8 -14 -10 15 -10 19 -1 72 -10 118 -21 46 -11 94 -20
107 -20 13 0 27 -4 30 -10 10 -16 25 -12 19 5 -4 8 -1 15 5 15 6 0 11 -9 11
-20 0 -11 3 -20 8 -20 4 0 18 -3 32 -5 22 -5 22 -4 5 4 -15 7 -6 9 34 6 31 -2
57 -9 62 -16 6 -10 11 -11 17 -3 11 17 63 27 56 11 -6 -17 -68 -40 -72 -27 -2
5 -12 10 -22 10 -10 0 -20 5 -22 12 -3 7 -10 8 -17 3 -10 -5 -2 -13 25 -26 22
-10 47 -18 57 -19 19 0 58 -20 69 -35 5 -6 8 -6 8 2 0 17 87 9 109 -11 9 -9
26 -16 36 -16 14 0 16 -3 8 -11 -15 -15 -50 -2 -63 22 -6 10 -16 19 -22 19 -7
0 -6 -5 2 -15 16 -19 7 -19 -32 1 -17 9 -27 11 -23 4 9 -15 90 -50 115 -50 10
0 22 -4 25 -10 4 -6 -1 -7 -12 -4 -15 5 -15 4 -3 -4 8 -6 19 -8 24 -4 6 3 30
7 53 7 37 2 40 0 25 -11 -20 -16 -46 -18 -37 -4 3 6 -1 10 -9 10 -19 0 -21
-14 -3 -28 12 -10 71 -3 110 13 26 11 21 -12 -8 -39 -21 -20 -23 -25 -10 -30
9 -3 14 -2 11 2 -2 4 20 8 50 9 30 2 54 -1 54 -6 0 -4 -12 -6 -26 -3 -19 3
-25 1 -20 -7 4 -6 14 -11 22 -11 8 0 14 -4 14 -10 0 -15 -17 -12 -46 6 -13 9
-27 14 -30 11 -3 -2 12 -15 33 -28 21 -13 41 -28 45 -33 4 -6 8 -7 8 -2 0 6 6
3 13 -6 6 -9 26 -24 42 -34 27 -17 29 -17 16 -1 -10 13 -10 17 -1 17 7 0 10 7
6 15 -4 12 4 15 39 15 l45 0 0 -39 c0 -31 -4 -40 -21 -44 -14 -4 -18 -10 -13
-18 6 -10 9 -10 12 -1 2 7 7 12 10 12 4 0 6 -1112 5 -2472 l-3 -2472 25 -38
c14 -21 25 -42 25 -47 0 -5 4 -12 8 -15 16 -10 9 29 -9 56 -23 32 -25 45 -4
28 8 -7 15 -19 15 -26 0 -20 18 -17 23 4 2 9 4 -4 3 -29 0 -26 -5 -44 -10 -41
-5 3 -6 -2 -3 -11 25 -62 9 -43 -45 53 -14 25 -74 128 -133 230 -60 102 -116
199 -125 215 -10 17 -32 55 -50 85 -18 30 -50 84 -70 120 -59 104 -220 381
-250 430 -15 25 -87 149 -160 275 -182 313 -582 999 -585 1003 -3 3 -41 -63
-353 -613 -68 -121 -180 -317 -247 -435 -212 -372 -654 -1148 -667 -1172 -7
-13 -15 -25 -18 -28 -3 -3 -20 -34 -39 -70 -50 -95 -57 -104 -64 -85 -4 8 -1
15 6 15 19 1 57 84 46 101 -5 8 -9 19 -9 24 0 6 5 3 10 -5 7 -12 12 -12 22 -2
10 10 10 15 -2 22 -13 8 -12 10 2 10 10 0 20 10 22 23 3 12 8 1124 10 2472 5
1970 8 2451 18 2453 8 2 7 -1 -2 -7 -8 -5 -11 -14 -6 -18 5 -4 11 -2 13 5 3 6
9 12 14 12 6 0 20 10 32 21 12 12 49 39 82 61 42 27 52 37 33 32 -28 -6 -28
-5 -28 41 l0 46 78 -5 c42 -2 78 -5 80 -5 2 -1 0 -7 -4 -13 -5 -8 -1 -8 12 2
29 22 30 24 10 16 -16 -5 -17 -4 -6 9 8 10 9 15 1 15 -6 0 -11 5 -11 10 0 6 8
10 18 10 10 0 26 9 36 21 12 14 25 19 39 15 27 -7 65 2 70 17 2 7 2 2 0 -11
-3 -22 -1 -21 49 13 29 19 60 35 68 35 8 -1 2 -7 -15 -15 -16 -7 -25 -14 -20
-14 17 -1 91 38 75 39 -9 1 -5 5 8 11 13 5 28 7 33 3 5 -3 32 2 61 11 29 9 89
24 133 35 l80 19 -62 -5 c-37 -4 -63 -2 -63 4 0 12 36 14 308 21 l62 1 0 40 0
40 80 0 80 0 0 -40z m-1934 -28 c-14 -15 -15 -13 -3 17 8 23 13 28 15 16 2
-10 -3 -25 -12 -33z m-29 13 c-7 -14 -15 -25 -19 -25 -13 0 -9 38 5 43 23 10
25 7 14 -18z m1387 -31 c9 -3 16 -12 16 -19 0 -7 3 -15 8 -18 4 -2 1 -2 -6 -1
-7 2 -24 -2 -37 -8 -19 -9 -28 -9 -37 0 -9 9 -5 12 16 12 23 0 26 3 21 20 -7
22 -5 23 19 14z m903 -6 c-5 -3 16 -9 47 -13 41 -5 61 -4 69 5 10 10 4 11 -26
7 -22 -4 -35 -2 -32 4 6 9 95 13 95 4 0 -3 -8 -14 -17 -24 -18 -19 -66 -23
-89 -9 -6 4 -38 10 -70 14 -82 9 -94 19 -24 19 32 0 53 -3 47 -7z m-947 -2 c0
-3 -4 -8 -10 -11 -5 -3 -10 -1 -10 4 0 6 5 11 10 11 6 0 10 -2 10 -4z m-230
-77 c0 -8 13 -10 38 -6 36 6 36 6 12 -8 -32 -18 -48 -18 -66 -1 -18 19 -18 26
1 26 8 0 15 -5 15 -11z m107 5 c-3 -3 -12 -4 -19 -1 -8 3 -5 6 6 6 11 1 17 -2
13 -5z m1463 -55 c0 -11 -4 -17 -10 -14 -5 3 -10 13 -10 21 0 8 5 14 10 14 6
0 10 -9 10 -21z m160 -39 c0 -5 -9 -6 -20 -3 -11 3 -17 9 -15 14 7 10 35 1 35
-11z m-1880 6 c0 -2 -9 -6 -20 -9 -11 -3 -20 -1 -20 4 0 5 9 9 20 9 11 0 20
-2 20 -4z m-200 -163 c0 -7 -41 -35 -71 -51 -4 -1 -6 8 -6 21 0 19 4 23 22 19
12 -2 26 1 29 7 8 12 26 15 26 4z m-116 -69 c9 -3 13 -10 10 -15 -8 -14 -21
-11 -28 6 -6 17 -4 18 18 9z m2494 -12 c6 -18 -15 -14 -22 4 -4 10 -1 14 6 12
6 -2 14 -10 16 -16z m-2600 -4962 c-7 -11 -15 -15 -17 -9 -2 6 3 15 10 20 20
12 21 11 7 -11z m-5 -53 c3 -8 2 -20 -3 -26 -5 -9 -7 -4 -7 13 0 29 2 32 10
13z m-43 -157 c-6 -11 -13 -20 -16 -20 -2 0 0 9 6 20 6 11 13 20 16 20 2 0 0
-9 -6 -20z m2878 -35 c-3 -3 -9 2 -12 12 -6 14 -5 15 5 6 7 -7 10 -15 7 -18z
m-28 5 c0 -5 -2 -10 -4 -10 -3 0 -8 5 -11 10 -3 6 -1 10 4 10 6 0 11 -4 11
-10z m33 -28 c2 7 8 10 12 6 4 -4 1 -16 -7 -26 -13 -20 -14 -19 -25 5 -10 20
-9 23 2 13 10 -8 14 -8 18 2z m-2945 -52 c-7 -10 -14 -18 -15 -16 -6 6 9 36
18 36 5 0 4 -9 -3 -20z m3002 -5 c0 -8 -4 -15 -9 -15 -13 0 -22 16 -14 24 11
11 23 6 23 -9z m-6 -60 c6 -16 9 -17 16 -5 7 10 10 11 10 3 0 -18 18 -16 23 2
4 11 4 10 3 -2 -1 -10 -8 -18 -16 -18 -8 0 -18 -4 -21 -9 -6 -8 -59 72 -59 89
0 11 35 -37 44 -60z m56 55 c0 -5 -5 -10 -11 -10 -5 0 -7 5 -4 10 3 6 8 10 11
10 2 0 4 -4 4 -10z m15 -137 c8 -7 18 -13 24 -13 6 0 11 -4 11 -10 0 -5 -7
-10 -15 -10 -8 0 -15 -5 -15 -11 0 -5 -4 -8 -9 -5 -5 3 -7 16 -5 29 2 12 2 16
-2 9 -4 -9 -11 -5 -25 12 -10 13 -19 28 -19 32 0 4 7 -1 15 -12 14 -18 14 -18
16 6 1 20 2 21 6 6 3 -11 11 -26 18 -33z m-3198 -26 c-3 -11 -457 -14 -457 -2
0 6 83 10 230 10 126 0 229 -3 227 -8z"/>
<path d="M2623 9343 c9 -2 23 -2 30 0 6 3 -1 5 -18 5 -16 0 -22 -2 -12 -5z"/>
<path d="M2016 9159 c-16 -16 -24 -29 -18 -29 18 0 100 38 107 50 4 7 -6 5
-23 -4 -39 -20 -48 -20 -32 -1 22 26 -4 14 -34 -16z"/>
<path d="M1890 9095 c-10 -12 -10 -15 1 -15 11 0 11 -2 -1 -10 -8 -5 -10 -10
-4 -10 5 0 19 7 30 15 19 15 19 15 -1 8 -18 -6 -18 -5 -6 10 7 9 9 17 3 17 -5
0 -15 -7 -22 -15z"/>
<path d="M4252 6398 c-1 -1346 1 -2449 6 -2451 6 -5 6 3578 -1 4528 -1 204 -3
-731 -5 -2077z"/>
<path d="M3158 10133 c6 -2 18 -2 25 0 6 3 1 5 -13 5 -14 0 -19 -2 -12 -5z"/>
<path d="M2478 10113 c7 -3 16 -2 19 1 4 3 -2 6 -13 5 -11 0 -14 -3 -6 -6z"/>
<path d="M3300 10111 l25 -9 -25 -2 c-14 -1 -20 -3 -15 -6 6 -2 30 0 55 5 25
5 35 9 24 10 -12 1 -37 3 -55 6 -29 4 -30 3 -9 -4z"/>
<path d="M3098 10093 c12 -2 32 -2 45 0 12 2 2 4 -23 4 -25 0 -35 -2 -22 -4z"/>
<path d="M3843 9963 c-25 -5 -32 -23 -9 -23 22 0 46 11 46 21 0 5 -3 8 -7 8
-5 -1 -18 -4 -30 -6z"/>
<path d="M1597 9809 c-15 -9 -15 -12 -3 -25 8 -8 21 -14 28 -14 9 1 7 5 -4 14
-10 7 -15 16 -11 19 3 4 13 1 21 -6 12 -10 14 -9 11 2 -7 19 -20 23 -42 10z"/>
<path d="M4540 9631 c0 -9 30 -24 36 -18 2 1 -6 8 -16 15 -11 7 -20 8 -20 3z"/>
<path d="M5018 7208 c1 -1151 3 -2466 5 -2923 1 -456 3 485 5 2093 1 1607 -1
2922 -5 2922 -5 0 -7 -942 -5 -2092z"/>
<path d="M13820 6463 c0 -1057 -8 -1364 -36 -1499 -17 -86 -52 -164 -93 -207
-61 -67 -187 -104 -321 -94 l-80 5 0 -159 0 -158 43 -13 c27 -8 104 -13 222
-13 214 0 257 9 420 90 285 142 466 356 536 637 47 190 49 235 49 1370 l0
1068 -370 0 -370 0 0 -1027z"/>
<path d="M8288 6428 l-3 -1053 -28 -88 c-90 -289 -236 -436 -502 -508 -107
-29 -346 -32 -445 -6 -170 45 -285 133 -360 277 -74 144 -70 67 -70 1307 l0
1113 -400 0 -400 0 0 -1028 c0 -847 3 -1049 15 -1155 19 -164 39 -243 86 -344
174 -378 530 -575 1089 -602 559 -27 964 107 1213 404 117 139 207 374 237
615 8 69 9 369 4 1107 l-7 1013 -213 0 -213 0 -3 -1052z"/>
<path d="M12159 7469 c-293 -16 -535 -97 -714 -239 -208 -166 -308 -367 -322
-650 -12 -257 47 -436 194 -585 98 -101 249 -193 618 -376 366 -182 471 -244
536 -317 73 -83 95 -160 78 -282 -25 -177 -152 -303 -359 -356 -97 -25 -297
-15 -405 20 -196 62 -333 194 -415 395 -16 39 -32 87 -36 106 -6 34 -7 35 -55
35 l-49 0 0 -384 0 -384 43 -16 c51 -18 126 -40 187 -55 268 -65 711 -56 980
18 317 89 566 281 680 524 69 148 92 296 78 499 -8 117 -34 213 -86 311 -91
175 -168 225 -882 570 -191 92 -317 175 -400 263 -82 88 -105 138 -104 229 2
167 100 286 290 351 71 25 93 28 214 27 120 0 144 -3 215 -27 194 -66 352
-230 413 -427 l27 -89 37 0 38 0 0 343 0 344 -77 36 c-141 65 -296 105 -443
113 -47 3 -101 6 -120 7 -19 2 -92 0 -161 -4z"/>
<path d="M9047 7328 c-4 -79 -7 -783 -7 -1565 l0 -1423 405 0 405 0 0 740 0
740 510 0 510 0 0 210 0 210 -510 0 -510 0 0 415 0 415 510 0 510 0 0 200 0
200 -908 0 -909 0 -6 -142z"/>
<path d="M8787 3935 c-51 -18 -85 -51 -98 -96 -26 -85 9 -135 141 -205 77 -40
96 -66 80 -108 -13 -35 -45 -49 -99 -43 -46 5 -91 41 -91 73 0 8 -4 14 -10 14
-6 0 -10 -28 -10 -64 l0 -65 46 -7 c164 -24 274 41 274 162 0 68 -25 99 -122
149 -118 61 -141 92 -98 135 22 22 75 27 112 9 13 -5 33 -24 46 -42 l22 -32 0
56 c0 50 -3 57 -25 67 -35 16 -121 14 -168 -3z"/>
<path d="M9995 3940 c-3 -5 -50 -120 -104 -254 l-99 -244 29 -4 c41 -6 51 4
75 74 l21 63 79 0 79 0 23 -67 24 -66 65 -4 c36 -2 67 1 70 5 3 5 -37 120 -88
258 l-94 249 -37 0 c-20 0 -40 -4 -43 -10z m34 -219 c11 -32 21 -63 21 -70 0
-7 -20 -11 -55 -11 l-54 0 24 65 c14 36 25 68 25 70 0 3 4 5 9 5 4 0 18 -26
30 -59z"/>
<path d="M13985 3918 c-7 -18 -56 -132 -109 -252 -52 -121 -93 -222 -91 -224
7 -7 73 -9 83 -3 5 3 19 36 31 74 l23 67 78 0 79 0 22 -69 c14 -43 29 -71 38
-73 9 -2 41 -1 72 2 l57 5 -96 253 -95 252 -39 0 c-35 0 -41 -4 -53 -32z m43
-190 c11 -29 23 -61 27 -70 6 -16 0 -18 -49 -18 -31 0 -56 3 -56 8 0 16 45
132 52 132 3 0 15 -24 26 -52z"/>
<path d="M6082 3748 c3 -174 6 -197 25 -233 34 -65 70 -80 190 -80 97 0 103 1
144 30 66 46 76 85 80 295 l3 175 -37 3 -37 3 -1 -48 c-1 -26 -3 -109 -4 -185
-4 -151 -12 -176 -67 -199 -46 -19 -106 -14 -133 11 -36 34 -45 86 -45 259 l0
161 -61 0 -61 0 4 -192z"/>
<path d="M6590 3691 l0 -249 27 -5 c56 -10 56 -8 48 166 -4 105 -3 158 3 156
6 -2 72 -75 147 -161 75 -87 139 -158 143 -159 4 0 23 -1 42 -2 32 -2 35 1 41
33 4 19 8 133 9 253 l1 217 -41 0 -40 0 0 -156 c0 -86 -4 -154 -9 -152 -11 4
-106 109 -199 221 l-73 87 -49 0 -50 0 0 -249z"/>
<path d="M7144 3926 c-7 -17 -1 -473 6 -479 3 -3 32 -7 65 -8 l60 -4 3 253 2
252 -65 0 c-47 0 -67 -4 -71 -14z"/>
<path d="M7330 3937 c0 -1 32 -85 71 -187 39 -102 80 -210 91 -240 11 -30 27
-60 34 -66 12 -9 71 -10 80 -2 1 2 41 102 88 223 48 121 91 230 96 243 14 32
14 32 -33 32 l-43 0 -53 -160 c-29 -88 -57 -162 -61 -165 -4 -3 -34 69 -66
160 l-59 165 -72 0 c-40 0 -73 -1 -73 -3z"/>
<path d="M7850 3690 l0 -250 150 0 150 0 0 30 c0 17 -5 30 -12 31 -7 0 -42 1
-78 2 l-65 2 -5 66 c-8 102 -10 99 76 99 l74 0 0 30 0 30 -75 0 -75 0 0 75 0
75 80 0 80 0 0 30 0 30 -150 0 -150 0 0 -250z"/>
<path d="M8230 3690 l0 -250 65 0 65 0 0 113 c1 128 -4 129 80 -18 l55 -95 55
-1 c58 -1 82 0 89 7 2 2 -17 34 -41 71 -25 37 -59 91 -76 118 l-31 50 31 10
c51 18 78 58 78 118 0 106 -38 127 -230 127 l-140 0 0 -250z m204 196 c38 -16
52 -54 41 -105 -8 -38 -31 -58 -77 -66 l-38 -7 0 96 c0 108 4 112 74 82z"/>
<path d="M9100 3690 l0 -250 33 -1 c17 -1 41 -2 52 -3 11 0 28 2 38 7 15 7 17
29 17 252 l0 245 -70 0 -70 0 0 -250z"/>
<path d="M9310 3690 l0 -250 140 0 c170 0 229 17 285 82 43 51 55 91 55 186 0
112 -34 176 -115 213 -34 16 -66 19 -202 19 l-163 0 0 -250z m277 180 c51 -31
68 -72 68 -170 0 -141 -44 -200 -155 -208 l-60 -4 0 201 0 201 58 0 c39 0 67
-6 89 -20z"/>
<path d="M10310 3690 l0 -250 140 0 c160 0 224 17 277 72 54 57 67 94 67 188
0 98 -17 143 -70 189 -48 43 -90 51 -261 51 l-153 0 0 -250z m287 174 c44 -33
63 -80 63 -160 0 -145 -55 -214 -170 -214 l-50 0 0 201 0 201 65 -4 c44 -3 74
-10 92 -24z"/>
<path d="M10870 3690 l0 -250 150 0 150 0 0 30 0 29 -82 3 -83 3 0 82 0 83 83
0 82 0 0 35 0 35 -80 0 -80 0 -1 50 c-1 28 -2 58 -3 68 -1 15 10 17 82 20 l82
3 0 29 0 30 -150 0 -150 0 0 -250z"/>
<path d="M11660 3690 l0 -250 70 0 70 0 0 115 0 115 75 0 75 0 0 35 0 35 -80
0 -81 0 3 68 3 67 83 3 82 3 0 29 0 30 -150 0 -150 0 0 -250z"/>
<path d="M12010 3691 l0 -250 140 -3 c77 -2 145 -1 150 0 6 2 10 17 10 32 l0
29 -77 3 -78 3 -5 66 c-8 102 -10 99 75 99 77 0 88 7 77 53 -4 14 -16 17 -83
17 l-79 0 0 54 c0 85 1 86 91 86 l79 0 0 30 0 30 -150 0 -150 0 0 -249z"/>
<path d="M12390 3691 l0 -251 138 0 c153 0 187 7 253 49 69 43 94 101 94 216
-1 109 -23 160 -87 202 -41 28 -45 28 -220 31 l-178 4 0 -251z m287 173 c47
-34 63 -79 63 -174 0 -69 -4 -92 -23 -125 -28 -50 -76 -75 -145 -75 l-53 0 1
201 2 201 64 -4 c43 -3 73 -10 91 -24z"/>
<path d="M12950 3691 c0 -223 2 -250 16 -253 9 -2 77 -2 150 0 l134 3 0 29 0
29 -77 3 -78 3 -3 83 -3 82 81 0 80 0 0 35 0 35 -80 0 -81 0 3 68 3 67 80 5
c77 5 80 6 80 30 l0 25 -152 3 -153 3 0 -250z"/>
<path d="M13340 3690 l0 -250 60 0 60 0 0 105 c0 58 4 105 9 105 5 0 36 -47
70 -104 l60 -104 67 -4 c36 -1 67 -1 69 2 1 3 -28 57 -66 120 -38 63 -69 117
-69 120 0 4 15 11 33 18 64 24 93 104 63 175 -23 56 -58 67 -221 67 l-135 0 0
-250z m223 183 c21 -20 23 -99 3 -126 -15 -20 -81 -42 -96 -32 -11 7 -14 168
-3 179 11 11 75 -3 96 -21z"/>
<path d="M14310 3690 l0 -250 125 0 125 0 0 29 c0 29 -2 30 -52 33 l-53 3 -3
218 -2 217 -70 0 -70 0 0 -250z"/>
<path d="M8168 3223 c-15 -14 -24 -15 -73 -5 -69 14 -91 5 -111 -45 -18 -42
-12 -53 15 -29 16 15 30 17 85 11 61 -7 66 -6 90 18 14 15 26 35 26 47 0 24
-10 26 -32 3z"/>
<path d="M10587 3223 c6 -14 1 -15 -38 -9 -24 4 -54 9 -66 12 -27 7 -83 -44
-83 -75 0 -25 15 -28 24 -5 5 14 16 15 71 9 90 -9 105 -3 105 46 0 21 -4 39
-10 39 -5 0 -7 -7 -3 -17z"/>
<path d="M7595 3079 c-70 -26 -114 -101 -101 -171 8 -45 54 -88 144 -132 79
-40 99 -66 82 -111 -26 -67 -168 -52 -186 20 -11 46 -24 26 -24 -39 l0 -65 45
-7 c105 -15 208 13 248 68 12 16 22 49 25 80 5 74 -21 110 -120 163 -89 48
-118 71 -118 97 0 56 104 80 151 35 13 -13 29 -32 36 -43 10 -16 12 -10 12 38
1 33 -4 60 -11 64 -20 12 -151 14 -183 3z"/>
<path d="M8025 3008 c-15 -40 -61 -154 -101 -253 -41 -98 -74 -183 -74 -188 0
-4 17 -7 38 -5 36 3 38 5 61 71 l23 67 82 0 82 0 20 -67 19 -68 73 -3 c39 -2
72 0 72 4 0 5 -132 358 -185 497 -5 12 -18 17 -44 17 -38 0 -38 0 -66 -72z
m64 -172 c12 -32 19 -61 16 -65 -9 -8 -95 -9 -101 0 -2 4 4 29 14 56 10 26 22
57 26 67 9 25 18 14 45 -58z"/>
<path d="M8537 3070 c-138 -35 -203 -126 -196 -277 5 -98 29 -147 92 -189 111
-76 321 -61 404 28 42 45 67 117 67 193 -1 117 -51 197 -144 230 -55 20 -172
28 -223 15z m179 -83 c41 -45 57 -102 52 -192 -6 -116 -52 -181 -134 -191 -53
-7 -102 21 -134 77 -21 38 -25 57 -25 134 0 104 23 161 78 196 51 32 121 22
163 -24z"/>
<path d="M9866 3061 c-107 -36 -170 -125 -171 -241 0 -80 11 -122 46 -170 45
-62 119 -93 223 -93 186 -1 285 81 294 243 5 87 -7 137 -46 189 -57 77 -225
112 -346 72z m181 -51 c52 -32 77 -91 78 -185 0 -145 -48 -218 -146 -219 -58
-1 -95 23 -124 80 -24 47 -32 162 -16 221 13 47 53 100 85 113 36 15 90 11
123 -10z"/>
<path d="M10476 3072 c-4 -7 -112 -275 -187 -464 l-19 -48 40 0 39 0 22 70 23
70 82 0 83 0 22 -70 23 -70 68 0 c58 0 68 2 67 18 0 9 -42 125 -93 257 l-92
240 -36 3 c-20 2 -39 -1 -42 -6z m32 -224 c12 -35 22 -66 22 -70 0 -10 -100
-14 -100 -3 0 17 43 135 50 135 3 0 16 -28 28 -62z"/>
<path d="M10955 3065 c-27 -8 -53 -14 -58 -15 -17 -1 -99 -86 -114 -119 -26
-57 -23 -195 5 -248 45 -85 128 -127 252 -127 102 0 157 20 216 78 55 56 74
105 74 193 0 107 -40 177 -125 218 -67 33 -176 42 -250 20z m163 -55 c50 -31
76 -97 77 -195 0 -67 -4 -89 -25 -129 -31 -61 -78 -89 -134 -82 -87 10 -136
85 -136 204 0 99 15 145 62 187 31 28 46 35 81 35 25 0 56 -8 75 -20z"/>
<path d="M6080 2815 l0 -258 143 6 c159 6 197 14 254 56 102 74 124 282 40
378 -54 61 -74 67 -264 71 l-173 4 0 -257z m289 178 c44 -33 61 -79 61 -168
-1 -133 -43 -194 -147 -210 -73 -11 -73 -9 -73 205 0 102 3 190 8 194 13 14
124 -2 151 -21z"/>
<path d="M6642 2818 l3 -253 148 -3 147 -3 0 36 0 35 -80 0 -80 0 0 85 0 85
80 0 80 0 0 35 0 35 -80 0 -80 0 0 65 c0 45 4 65 13 66 6 0 42 0 78 -1 69 -1
81 6 75 46 -3 17 -16 19 -155 22 l-151 3 2 -253z"/>
<path d="M9480 2818 c0 -285 -3 -297 -63 -312 -32 -8 -37 -13 -37 -38 0 -27 2
-28 48 -28 90 1 169 58 192 138 5 20 10 139 10 265 l0 227 -75 0 -75 0 0 -252z"/>
<path d="M11885 3058 c-3 -7 -4 -121 -3 -253 l3 -240 145 1 c134 0 149 2 200
26 101 47 131 94 138 214 7 125 -23 195 -101 236 -37 20 -61 23 -209 26 -136
3 -169 1 -173 -10z m271 -58 c60 -30 79 -72 79 -180 -1 -94 -14 -131 -64 -173
-30 -25 -104 -43 -134 -31 -15 5 -17 28 -17 205 l0 199 47 0 c27 0 65 -9 89
-20z"/>
<path d="M12450 2815 l0 -256 148 3 147 3 3 32 3 32 -83 3 -83 3 -3 83 -3 82
81 0 80 0 0 35 0 34 -77 3 -78 3 0 60 0 60 80 5 80 5 3 33 3 32 -150 0 -151 0
0 -255z"/>
<path d="M12830 2815 l0 -255 150 0 150 0 0 35 0 34 -77 3 -78 3 -3 218 -2
217 -70 0 -70 0 0 -255z"/>
<path d="M13580 2815 l0 -256 63 3 62 3 5 110 5 110 66 -110 66 -110 71 -3
c48 -2 72 1 72 8 0 6 -21 44 -47 83 -26 40 -60 91 -75 114 l-28 43 34 14 c49
20 76 60 76 113 0 107 -48 133 -240 133 l-130 0 0 -255z m234 173 c13 -17 17
-33 13 -62 -7 -48 -32 -75 -80 -83 l-37 -6 0 90 c0 49 2 92 6 95 11 12 80 -12
98 -34z"/>
<path d="M14040 2815 l0 -256 148 3 147 3 0 30 0 30 -80 5 -80 5 0 80 0 80 78
3 77 3 0 34 0 35 -80 0 -80 0 0 65 0 64 83 3 82 3 3 33 3 32 -150 0 -151 0 0
-255z"/>
<path d="M14424 3057 c-2 -7 -3 -120 -2 -252 l3 -240 68 -3 67 -3 0 256 0 255
-65 0 c-44 0 -67 -4 -71 -13z"/>
<path d="M13234 2776 c-3 -8 -4 -27 -2 -43 l3 -28 88 -3 87 -3 0 46 0 45 -85
0 c-65 0 -87 -3 -91 -14z"/>
</g>
</svg>
